<svg version="1" xmlns="http://www.w3.org/2000/svg" width="320" height="320" viewBox="0 0 240.000000 240.000000"><path d="M126.3 11.5c.4 2-.2 2-22.5 2-19.2 0-23-.2-23.8-1.5-.8-1.2-1-1.2-1-.1 0 .8-.7 1.1-1.7.9-1.7-.5-1.8 2.1-1.8 43.9.1 24.4-.3 44.3-.8 44.3s-4.2-1-8.3-2.3L59 96.5V52H43v56H0v24h43v56h16v-44.5l7.4-2.2c4.1-1.3 7.8-2.3 8.3-2.3.5 0 .8 19.1.8 42.5s-.3 42.5-.6 42.5-.6.7-.6 1.5.4 1.2.9.9c.5-.3 1.8.2 2.9 1.2 1.5 1.3 1.8 1.4 1.4.3-.5-1.3 1.2-1.4 11.2-1.2 14.5.4 7.5.4 50.5-.1 21.5-.2 37 0 37.4.5.3.5 1.1.9 1.7.9.7 0 .6-.4-.3-1-1-.6-1.1-1-.2-1 .9 0 1.2-9 1.2-41.5V143h30v-16h29v-14h-29V97h-30V55.9c.1-22.6-.2-41.4-.5-41.7-.3-.3-12.3-.6-26.6-.5-25.8.1-26 .1-27-2-.8-1.9-.9-2-.6-.2zm-64.4 94.7c.1 1-.6 1.8-1.4 1.8-1.2 0-1.5-1.2-1.4-5.3l.1-5.2 1.3 3.5c.7 1.9 1.4 4.3 1.4 5.2zm0 27.5c0 1-.7 3.4-1.4 5.3l-1.3 3.5-.1-5.3c-.1-4 .2-5.2 1.4-5.2.8 0 1.5.8 1.4 1.7zM179 10.4c0 .2.8 1 1.8 1.7 1.5 1.3 1.6 1.2.3-.4s-2.1-2.1-2.1-1.3zM115 229.8c0 .4.9.8 1.9.8 1.1 0 1.7-.4 1.5-.8-.7-1-3.4-1-3.4 0z"/></svg>